<svg height="157" preserveAspectRatio="xMidYMid" viewBox="0 0 217 157" width="217" xmlns="http://www.w3.org/2000/svg"><g fill-rule="evenodd"><path d="m70.756 125.25h-20.495c-3.952 0-7.156 2.335-7.156 5.216s3.204 5.215 7.156 5.215h.953c3.952 0 7.156 2.335 7.156 5.216s-3.204 5.216-7.156 5.216h-44.059c-3.951 0-7.155 2.335-7.155 5.215 0 2.881 3.204 5.216 7.155 5.216h52.948 108.224c3.952 0 7.155-2.335 7.155-5.216 0-2.88-3.203-5.215-7.155-5.215h-12.228c-3.951 0-7.155-2.335-7.155-5.216s3.204-5.216 7.155-5.216h48.025c3.952 0 7.156-2.334 7.156-5.215s-3.204-5.216-7.156-5.216h-3.584z" fill="#2476ff"/><path d="m196.743 157.013c-2.784 0-5.04-1.652-5.04-3.689 0-2.038 2.256-3.689 5.04-3.689h15.445c2.784 0 5.041 1.651 5.041 3.689 0 2.037-2.257 3.689-5.041 3.689z" fill="#2476ff"/><path d="m165.539 40.526h-57.358c.538-6.835 2.356-9.499 4.425-12.448 3.045-4.338 6.497-9.247 6.497-23.638 0-2.455-1.987-4.441-4.442-4.441-2.454 0-4.441 1.986-4.441 4.441 0 11.581-2.264 14.798-4.884 18.538-2.559 3.635-5.412 7.711-6.076 17.548h-46.766c-25.004 0-45.352 20.133-45.352 44.881 0 24.462 19.922 43.617 45.352 43.617 15.389 0 27.296-10.29 33.714-17.437h45.074c5.547 6.107 17.662 16.924 33.845 16.924 25.508 0 45.49-19.301 45.49-43.945 0-24.696-19.799-44.04-45.078-44.04z" fill="#142a3b"/><path d="m193.902 50.12c5.841 7.421 9.316 16.755 9.316 27.048 0 24.643-19.982 43.945-45.49 43.945-16.183 0-28.297-10.817-33.845-16.925h-45.074c-6.418 7.148-18.325 17.436-33.714 17.436-11.012 0-20.983-3.603-28.76-9.661 8.216 10.416 21.217 17.06 36.159 17.06 15.389 0 27.296-10.289 33.714-17.436h45.074c5.547 6.108 17.662 16.925 33.845 16.925 25.508 0 45.49-19.302 45.49-43.945 0-14.101-6.471-26.439-16.715-34.447z" fill="#060606" opacity=".35"/><path d="m67.284 88.638h-8.883v8.883c0 2.456-1.986 4.442-4.441 4.442s-4.442-1.986-4.442-4.442v-8.883h-8.883c-2.454 0-4.442-1.986-4.442-4.441 0-2.454 1.988-4.441 4.442-4.441h8.883v-8.882c0-2.456 1.987-4.441 4.442-4.441s4.441 1.985 4.441 4.441v8.882h8.883c2.455 0 4.442 1.987 4.442 4.441 0 2.455-1.987 4.441-4.442 4.441z" fill="#060606"/><path d="m63.585 84.939h-8.884v8.884c0 2.454-1.986 4.44-4.441 4.44s-4.442-1.986-4.442-4.44v-8.884h-8.883c-2.454 0-4.441-1.986-4.441-4.441 0-2.456 1.987-4.442 4.441-4.442h8.883v-8.883c0-2.454 1.987-4.441 4.442-4.441s4.441 1.987 4.441 4.441v8.883h8.884c2.455 0 4.441 1.986 4.441 4.442 0 2.455-1.986 4.441-4.441 4.441z" fill="#ff3a2f"/><path d="m99.116 84.939h-8.883c-2.454 0-4.441-1.986-4.441-4.441 0-2.456 1.987-4.442 4.441-4.442h8.883c2.455 0 4.441 1.986 4.441 4.442 0 2.455-1.986 4.441-4.441 4.441z" fill="#ededed"/><path d="m125.765 84.939h-8.883c-2.455 0-4.441-1.986-4.441-4.441 0-2.456 1.986-4.442 4.441-4.442h8.883c2.456 0 4.441 1.986 4.441 4.442 0 2.455-1.985 4.441-4.441 4.441z" fill="#ededed"/></g><circle cx="156" cy="98" fill="#060606" r="10"/><circle cx="183" cy="71" fill="#060606" r="10"/><path d="m152.414 102.705c-4.906 0-8.883-3.973-8.883-8.882 0-4.902 3.977-8.884 8.883-8.884 4.905 0 8.882 3.982 8.882 8.884 0 4.909-3.977 8.882-8.882 8.882z" fill="#0cb04a" fill-rule="evenodd"/><path d="m179.062 76.056c-4.905 0-8.882-3.973-8.882-8.883 0-4.901 3.977-8.881 8.882-8.881 4.906 0 8.884 3.98 8.884 8.881 0 4.91-3.978 8.883-8.884 8.883z" fill="#0cb04a" fill-rule="evenodd"/></svg>